<svg width="30" height="30" viewBox="0 0 30 30" fill="none" xmlns="http://www.w3.org/2000/svg">
<g clip-path="url(#clip0)">
<path d="M30 5H0V25.0002H30V5Z" fill="#F0F0F0"/>
<path d="M16.875 4.99982H13.125V13.1248H0V16.8748H13.125V24.9997H16.875V16.8748H30V13.1248H16.875V4.99982Z" fill="#D80027"/>
<path d="M23.0734 18.478L30 22.3262V18.478H23.0734Z" fill="#0052B4"/>
<path d="M18.2609 18.478L30 24.9997V23.1556L21.5805 18.478H18.2609Z" fill="#0052B4"/>
<path d="M26.8731 24.9997L18.2609 20.2147V24.9997H26.8731Z" fill="#0052B4"/>
<path d="M18.2609 18.478L30 24.9997V23.1556L21.5805 18.478H18.2609Z" fill="#F0F0F0"/>
<path d="M18.2609 18.478L30 24.9997V23.1556L21.5805 18.478H18.2609Z" fill="#D80027"/>
<path d="M5.29342 18.4779L0 21.4187V18.4779H5.29342Z" fill="#0052B4"/>
<path d="M11.7391 19.3073V24.9997H1.49359L11.7391 19.3073Z" fill="#0052B4"/>
<path d="M8.41951 18.478L0 23.1556V24.9997L11.7391 18.478H8.41951Z" fill="#D80027"/>
<path d="M6.92666 11.5215L0 7.67334V11.5215H6.92666Z" fill="#0052B4"/>
<path d="M11.7391 11.5215L0 4.99982V6.844L8.41951 11.5215H11.7391Z" fill="#0052B4"/>
<path d="M3.12689 4.99982L11.7391 9.78482V4.99982H3.12689Z" fill="#0052B4"/>
<path d="M11.7391 11.5215L0 4.99982V6.844L8.41951 11.5215H11.7391Z" fill="#F0F0F0"/>
<path d="M11.7391 11.5215L0 4.99982V6.844L8.41951 11.5215H11.7391Z" fill="#D80027"/>
<path d="M24.7066 11.5217L30 8.58087V11.5217H24.7066Z" fill="#0052B4"/>
<path d="M18.2609 10.6923V4.99988H28.5064L18.2609 10.6923Z" fill="#0052B4"/>
<path d="M21.5805 11.5215L30 6.844V4.99982L18.2609 11.5215H21.5805Z" fill="#D80027"/>
</g>
<defs>
<clipPath id="clip0">
<rect width="30" height="30" fill="white"/>
</clipPath>
</defs>
</svg>
